<svg id="icons" enable-background="new 0 0 64 64" height="512" viewBox="0 0 64 64" width="512" xmlns="http://www.w3.org/2000/svg"><path d="m11.998 39.99h2 1.01 2 3.979c.551 0 1 .45 1 1v12c0 .55-.449 1-1 1h-5.479c-.551 0-1.451 0-2 0h-9.512c-.551 0-1-.45-1-1v-12c0-.55.449-1 1-1z" fill="#f6bb42"/><path d="m12.033 31.234c-.313 0-.441-1.916-.441-1.916l38.857-27.865c.449-.322 1.074-.218 1.395.229.322.449.219 1.073-.229 1.396l-39 27.969c-.177.127-.381.187-.582.187z" fill="#545c66"/><path d="m52.006 7.01c.93 0 1.77-.43 2.318-1.09l-22.119 30.07h-3.73l21.75-29.57c.5.37 1.111.59 1.781.59z" fill="#e6e9ed"/><path d="m49.006 4.01c0 .99.479 1.87 1.219 2.41l-21.75 29.57h-3.729l24.77-33.66c-.321.48-.51 1.06-.51 1.68z" fill="#e6e9ed"/><path d="m27.822 37.977c-.207 0-.414-.063-.592-.194-.445-.327-.541-.953-.213-1.398l23.21-31.547c.328-.445.953-.54 1.398-.213.443.327.539.953.213 1.398l-23.209 31.546c-.197.267-.5.408-.807.408z" fill="#ccd1d9"/><path d="m54.004 40.013c-.553 0-1-.447-1-1v-35.006c0-.552.447-1 1-1s1 .448 1 1v35.006c0 .552-.447 1-1 1z" fill="#545c66"/><g fill="#656d78"><path d="m55.006 4.01c0 .66-.221 1.28-.58 1.78-.041.04-.07.09-.102.13-.549.66-1.389 1.09-2.318 1.09-.67 0-1.281-.22-1.781-.59-.74-.54-1.219-1.42-1.219-2.41 0-.62.189-1.2.51-1.68.02-.03.049-.07.07-.101.18-.25.398-.46.648-.64l.07-.05c.48-.33 1.07-.53 1.701-.53 1.661.001 3.001 1.341 3.001 3.001z"/><path d="m54.004 39.01c3.871 0 7 3.14 7 7 0 3.87-3.129 7-7 7-3.859 0-7-3.13-7-7 0-3.861 3.141-7 7-7z"/><path d="m14.006 30.51v9.48h-3.01v-9.48c0-.56.309-1.04.76-1.29.219-.14.479-.21.75-.21.818 0 1.5.67 1.5 1.5z"/><path d="m8.006 58.49c0-2.48 2.01-4.5 4.5-4.5h7.479 16.012 2.51c2.479 0 4.5 2.02 4.5 4.5 0 2.489-2.021 4.5-4.5 4.5h-26c-2.491 0-4.501-2.011-4.501-4.5zm4.5 1.5h25.99.01c.83-.011 1.49-.671 1.49-1.5 0-.83-.66-1.49-1.49-1.5h-.01-25.99-.01c-.82 0-1.5.67-1.5 1.5 0 .829.68 1.5 1.5 1.5z"/></g><path d="m38.506 56.99c.83.01 1.49.67 1.49 1.5 0 .829-.66 1.489-1.49 1.5h-.01-25.99-.01c-.82 0-1.5-.671-1.5-1.5 0-.83.68-1.5 1.5-1.5h.01 25.99z" fill="#545c66"/><path d="m31.746 38.99 1.26 4h-.01v8h-7.012v-12z" fill="#5d9cec"/><path d="m22.996 38.99h2.988v12h-2.988z" fill="#5d9cec"/><path d="m32.996 50.99v-8h.01l-1.26-4h-5.762-2.988v12h2.988zm3-8v11h-16.012v-14-3.001l1-.999h3.762 3.729 3.73 1.77z" fill="#ffce54"/><path d="m15.99 44.99h-8.998c-.553 0-1-.447-1-1s.447-1 1-1h8.998c.553 0 1 .447 1 1s-.447 1-1 1z" fill="#edab37"/><path d="m15.99 47.989h-8.998c-.553 0-1-.447-1-1s.447-1 1-1h8.998c.553 0 1 .447 1 1s-.447 1-1 1z" fill="#edab37"/><path d="m15.99 50.988h-8.998c-.553 0-1-.447-1-1s.447-1 1-1h8.998c.553 0 1 .447 1 1s-.447 1-1 1z" fill="#edab37"/><path d="m25.99 51.991c-.553 0-1-.447-1-1v-11.998c0-.553.447-1 1-1s1 .447 1 1v11.998c0 .553-.447 1-1 1z" fill="#ffce54"/><path d="m52.037 5.007c-.553 0-1.006-.448-1.006-1s.443-1 .994-1h.012c.551 0 1 .448 1 1s-.449 1-1 1z" fill="#545c66"/><circle cx="20.984" cy="36.99" fill="#ffce54" r="1"/></svg>