<svg id="Capa_1" enable-background="new 0 0 512 512" height="512" viewBox="0 0 512 512" width="512" xmlns="http://www.w3.org/2000/svg"><g><path d="m481 227c0 8.28-6.72 15-15 15h-420c-8.28 0-15-6.72-15-15 0-76.99 50.2-140.41 120-172.42l15 97.42 15-108.85c13.92-4.29 28.38-7.4 43.17-9.22.05-.01 15.94-.01 31.83-.01s31.78 0 31.83.01c14.77 1.81 29.23 4.92 43.17 9.22l15 108.85 15-97.41c69.6 31.93 120 95.16 120 172.41z" fill="#ffde46"/><path d="m481 227c0 8.28-6.72 15-15 15h-210v-208.08c15.89 0 31.78 0 31.83.01 14.77 1.81 29.23 4.92 43.17 9.22l15 108.85 15-97.41c69.6 31.93 120 95.16 120 172.41z" fill="#fdbf00"/><path d="m457.53 416.1-42.43 42.43c-5.83 5.83-15.34 5.87-21.21 0l-35.64-35.64c-17.73 10.97-36.9 18.9-57.25 23.69v50.42c0 8.28-6.72 15-15 15h-60c-8.28 0-15-6.72-15-15v-50.42c-20.35-4.79-39.52-12.72-57.25-23.69l-35.64 35.64c-4.3 4.3-10.73 5.56-16.34 3.25-4.88-2.02-2.54-1.47-47.3-45.68-5.85-5.86-5.85-15.36 0-21.22l35.64-35.63c-13.2-21.33-21.99-44.74-26.2-69.76-1.38-8.17 4.13-15.91 12.3-17.28.1 0 65.97-.02 66.07 0 5.66.95 10.52 5.13 12.04 11.04 11.98 46.37 53.79 78.75 101.68 78.75s89.7-32.38 101.68-78.75c1.53-5.91 6.38-10.09 12.05-11.04.1-.02 65.96 0 66.06 0 8.17 1.37 13.68 9.11 12.3 17.28-4.21 25.02-13 48.43-26.2 69.76l35.64 35.63c5.85 5.86 5.85 15.36 0 21.22z" fill="#704c55"/><path d="m457.53 416.1-42.43 42.43c-5.83 5.83-15.34 5.87-21.21 0l-35.64-35.64c-17.73 10.97-36.9 18.9-57.25 23.69v50.42c0 8.28-6.72 15-15 15h-30v-150c47.89 0 89.7-32.38 101.68-78.75 1.53-5.91 6.38-10.09 12.05-11.04.1-.02 65.96 0 66.06 0 8.17 1.37 13.68 9.11 12.3 17.28-4.21 25.02-13 48.43-26.2 69.76l35.64 35.63c5.85 5.86 5.85 15.36 0 21.22z" fill="#5b362a"/><g><g><g><g><g><path d="m497 212h-482c-8.28 0-15 6.72-15 15v60c0 8.28 6.72 15 15 15h482c8.28 0 15-6.72 15-15v-60c0-8.28-6.72-15-15-15z" fill="#fdbf00"/></g></g></g></g></g><path d="m512 227v60c0 8.28-6.72 15-15 15h-241v-90h241c8.28 0 15 6.72 15 15z" fill="#ff9100"/><g><g><path d="m286 0h-60c-8.28 0-15 6.72-15 15v152c0 8.28 6.72 15 15 15h60c8.28 0 15-6.72 15-15v-152c0-8.28-6.72-15-15-15z" fill="#fdbf00"/></g></g><path d="m301 15v152c0 8.28-6.72 15-15 15h-30v-182h30c8.28 0 15 6.72 15 15z" fill="#ff9100"/><g><path d="m181 43.15v93.85c0 8.28-6.72 15-15 15s-15-6.72-15-15v-82.42c9.65-4.43 19.68-8.26 30-11.43z" fill="#fdbf00"/></g><g><path d="m361 54.59v82.41c0 8.28-6.72 15-15 15s-15-6.72-15-15v-93.85c10.31 3.18 20.34 7.01 30 11.44z" fill="#ff9100"/></g></g></svg>